<?xml version="1.0" encoding="UTF-8" standalone="no"?>
<!-- Created with Inkscape (http://www.inkscape.org/) -->

<svg
   width="1897.2507"
   height="315.22107"
   viewBox="0 0 1897.2507 315.22107"
   version="1.1"
   id="svg1"
   sodipodi:docname="AquaShapeTextHeader_Image.svg"
   inkscape:version="1.3.2 (091e20e, 2023-11-25, custom)"
   xmlns:inkscape="http://www.inkscape.org/namespaces/inkscape"
   xmlns:sodipodi="http://sodipodi.sourceforge.net/DTD/sodipodi-0.dtd"
   xmlns="http://www.w3.org/2000/svg"
   xmlns:svg="http://www.w3.org/2000/svg">
  <sodipodi:namedview
     id="namedview1"
     pagecolor="#ffffff"
     bordercolor="#000000"
     borderopacity="0.25"
     inkscape:showpageshadow="2"
     inkscape:pageopacity="0.0"
     inkscape:pagecheckerboard="0"
     inkscape:deskcolor="#d1d1d1"
     inkscape:document-units="px"
     inkscape:zoom="0.22875205"
     inkscape:cx="1005.4555"
     inkscape:cy="701.63305"
     inkscape:window-width="1920"
     inkscape:window-height="1017"
     inkscape:window-x="-8"
     inkscape:window-y="-8"
     inkscape:window-maximized="1"
     inkscape:current-layer="g7" />
  <defs
     id="defs1" />
  <g
     inkscape:label="text ref"
     inkscape:groupmode="layer"
     id="layer1"
     transform="translate(20.401583,-123.68165)"
     style="display:none">
    <rect
       style="display:inline;fill:#000000;fill-opacity:1;stroke:#ffffff;stroke-width:5"
       id="rect2"
       width="2114.6729"
       height="622.51465"
       x="-125.12857"
       y="-34.410358" />
    <text
       xml:space="preserve"
       style="font-style:normal;font-variant:normal;font-weight:bold;font-stretch:normal;font-size:333.333px;font-family:'Century Gothic';-inkscape-font-specification:'Century Gothic Bold';fill:none;fill-opacity:0.414948;stroke:#ffffff;stroke-width:5;stroke-dasharray:none"
       x="-25.876835"
       y="371.62411"
       id="text2"><tspan
         sodipodi:role="line"
         id="tspan2"
         x="-25.876835"
         y="371.62411"
         style="font-style:normal;font-variant:normal;font-weight:bold;font-stretch:normal;font-family:'Century Gothic';-inkscape-font-specification:'Century Gothic Bold';fill:none;fill-opacity:0.414948;stroke-width:5;stroke-dasharray:none">AquaShape</tspan></text>
  </g>
  <g
     inkscape:label="Копия Слой 1"
     inkscape:groupmode="layer"
     id="g7"
     transform="translate(20.401583,-123.68165)"
     style="display:inline">
    <path
       d="m 1567.5457,231.00001 c -13.9974,0 -25.607,4.77367 -34.8301,14.32226 -9.2231,9.5486 -13.834,22.0276 -13.834,37.43555 0,15.73348 4.6109,28.48244 13.834,38.24805 9.2231,9.6571 20.8327,14.48633 34.8301,14.48633 13.5633,0 24.9566,-4.93839 34.1797,-14.8125 9.3315,-9.87412 13.998,-22.46032 13.998,-37.75977 0,-15.19094 -4.5573,-27.61438 -13.6719,-37.27148 -9.1145,-9.76561 -20.617,-14.64844 -34.5058,-14.64844 z"
       style="display:inline;stroke:#ffffff;stroke-width:5"
       id="path13" />
    <path
       d="m 1340.8211,231.00001 c -13.7804,0 -25.2273,4.88283 -34.3418,14.64844 -9.1146,9.6571 -13.6719,22.08054 -13.6719,37.27148 0,15.29945 4.6109,27.88565 13.834,37.75977 9.3316,9.87411 20.7784,14.8125 34.3418,14.8125 13.9974,0 25.6089,-4.82923 34.832,-14.48633 9.2231,-9.76561 13.834,-22.51457 13.834,-38.24805 0,-15.40795 -4.6109,-27.88695 -13.834,-37.43555 -9.2231,-9.54859 -20.8883,-14.32226 -34.9941,-14.32226 z"
       style="display:inline;stroke:#ffffff;stroke-width:5"
       id="path12" />
    <path
       d="m 747.39725,231.00001 c -13.78036,0 -25.22724,4.88283 -34.3418,14.64844 -9.11457,9.6571 -13.67188,22.08054 -13.67188,37.27148 0,15.29945 4.61092,27.88565 13.83399,37.75977 9.33158,9.87411 20.77845,14.8125 34.34179,14.8125 13.99737,0 25.60896,-4.82923 34.83204,-14.48633 9.22307,-9.76561 13.83398,-22.51457 13.83398,-38.24805 0,-15.40795 -4.61091,-27.88695 -13.83398,-37.43555 -9.22308,-9.54859 -20.88827,-14.32226 -34.99414,-14.32226 z"
       style="display:inline;stroke:#ffffff;stroke-width:5"
       id="path11" />
    <path
       d="m 327.31326,231.00001 c -13.78035,0 -25.22723,4.88283 -34.3418,14.64844 -9.11456,9.6571 -13.67187,22.08054 -13.67187,37.27148 0,15.29945 4.61091,27.88565 13.83398,37.75977 9.33158,9.87411 20.77846,14.8125 34.3418,14.8125 13.99737,0 25.60701,-4.82923 34.83008,-14.48633 9.22307,-9.76561 13.83594,-22.51457 13.83594,-38.24805 0,-15.40795 -4.61287,-27.88695 -13.83594,-37.43555 -9.22307,-9.54859 -20.88631,-14.32226 -34.99219,-14.32226 z"
       style="display:inline;stroke:#ffffff;stroke-width:5"
       id="path10" />
    <path
       d="m 1782.2273,227.58204 c -12.3697,0 -23.2211,3.47159 -32.5527,10.41602 -5.8594,4.34027 -11.2841,11.99004 -16.2754,22.94921 h 96.1914 c -2.9297,-9.87411 -8.7355,-17.903 -17.416,-24.08789 -8.572,-6.18488 -18.5541,-9.27734 -29.9473,-9.27734 z"
       style="display:inline;stroke:#ffffff;stroke-width:5"
       id="path9" />
    <path
       d="m 97.821073,195.6797 -31.90039,82.19531 h 63.638667 z"
       style="display:inline;stroke:#ffffff;stroke-width:5"
       id="path8" />
    <path
       d="M -125.12815,-34.410147 V 588.10352 H 1989.5437 V -34.410147 Z M 944.50076,126.18165 c 11.93574,0 23.27346,2.76694 34.01563,8.30078 10.85067,5.53384 22.56951,15.62503 35.15621,30.27344 l -33.69137,29.78515 C 968.154,178.048 956.10968,169.80079 943.84842,169.80079 c -5.96787,0 -10.8507,1.62761 -14.64844,4.88281 -3.79774,3.1467 -5.69531,6.72744 -5.69531,10.74219 0,4.01475 1.35569,7.81381 4.06836,11.39453 3.68923,4.7743 14.81058,15.02824 33.36523,30.76172 17.36108,14.5399 27.88694,23.70812 31.57617,27.50586 9.22307,9.33158 15.73347,18.28344 19.53127,26.85547 3.9062,8.46352 5.8594,17.7409 5.8594,27.83203 0,19.63972 -6.7824,35.86222 -20.34575,48.66602 -13.56334,12.80379 -31.24874,19.20507 -53.05859,19.20507 -17.03556,0 -31.90237,-4.17818 -44.59766,-12.5332 -12.58678,-8.35502 -23.38261,-21.48311 -32.38867,-39.38672 l 38.24805,-23.11328 c 11.50171,21.15881 24.74091,31.73828 39.71484,31.73828 7.81249,0 14.37653,-2.27865 19.69336,-6.83594 5.31683,-4.55728 7.97461,-9.81923 7.97461,-15.78711 0,-5.42533 -2.00673,-10.85005 -6.02148,-16.27539 -4.01475,-5.42533 -12.85745,-13.72615 -26.5293,-24.90234 -26.04161,-21.26732 -42.86156,-37.65258 -50.45703,-49.1543 -7.59547,-11.61022 -11.39258,-23.16625 -11.39258,-34.66797 0,-16.60152 6.29408,-30.81534 18.88086,-42.64257 12.69529,-11.93574 28.32035,-17.9043 46.875,-17.9043 z m 112.30274,0 h 44.1094 v 86.26367 c 8.6805,-7.48696 17.414,-13.07639 26.2031,-16.76562 8.789,-3.79774 17.6873,-5.69532 26.6934,-5.69532 17.578,0 32.3893,6.07577 44.4335,18.22852 10.3082,10.52515 15.4629,25.98745 15.4629,46.38672 v 117.02539 h -43.7832 v -77.63672 c 0,-20.50777 -0.9765,-34.39802 -2.9297,-41.66797 -1.9531,-7.26995 -5.3175,-12.69467 -10.0917,-16.27539 -4.6658,-3.58072 -10.4697,-5.37109 -17.4141,-5.37109 -9.0061,0 -16.765,2.9833 -23.2754,8.95117 -6.4019,5.96787 -10.8501,14.10592 -13.3457,24.41406 -1.3021,5.31683 -1.9531,17.47031 -1.9531,36.45899 v 71.12695 h -44.1094 z m -982.419927,6.02148 h 46.224607 l 92.1211,239.42188 H 165.366 L 146.6492,322.3086 H 48.992948 l -19.53125,49.31641 h -47.363281 z m 243.814457,57.78125 c 10.63366,0 20.61568,2.00674 29.94726,6.02149 9.33158,4.01475 17.95792,10.03691 25.87891,18.0664 v -19.53125 h 44.27148 V 436.40235 H 374.0242 v -83.49609 c -8.68054,8.24651 -17.41408,14.21507 -26.20313,17.9043 -8.68054,3.58072 -18.12068,5.37109 -28.32031,5.37109 -22.89492,0 -42.69817,-8.8427 -59.4082,-26.5293 -16.71004,-17.7951 -25.06446,-39.877 -25.06446,-66.24414 0,-27.34369 8.08445,-49.75112 24.25196,-67.2207 16.1675,-17.46958 35.80603,-26.20313 58.91797,-26.20313 z m 420.08398,0 c 10.63366,0 20.61764,2.00674 29.94922,6.02149 9.33158,4.01475 17.95791,10.03691 25.87891,18.0664 v -19.53125 h 44.26953 v 177.08399 h -44.26953 v -18.71875 c -8.68054,8.24651 -17.41604,14.21507 -26.20508,17.9043 -8.68054,3.58072 -18.12068,5.37109 -28.32031,5.37109 -22.89492,0 -42.69817,-8.8427 -59.40821,-26.5293 -16.71003,-17.7951 -25.06445,-39.877 -25.06445,-66.24414 0,-27.34369 8.08445,-49.75112 24.25195,-67.2207 16.1675,-17.46958 35.80604,-26.20313 58.91797,-26.20313 z m 593.42379,0 c 10.6337,0 20.6177,2.00674 29.9493,6.02149 9.3315,4.01475 17.9579,10.03691 25.8789,18.0664 v -19.53125 h 44.2695 v 177.08399 h -44.2695 v -18.71875 c -8.6806,8.24651 -17.4161,14.21507 -26.2051,17.9043 -8.6806,3.58072 -18.1207,5.37109 -28.3203,5.37109 -22.8949,0 -42.6982,-8.8427 -59.4082,-26.5293 -16.7101,-17.7951 -25.0645,-39.877 -25.0645,-66.24414 0,-27.34369 8.0845,-49.75112 24.252,-67.2207 16.1675,-17.46958 35.806,-26.20313 58.9179,-26.20313 z m 245.1172,0 c 23.112,0 42.7524,8.73355 58.9199,26.20313 16.1676,17.46958 24.252,39.87701 24.252,67.2207 0,26.36714 -8.3564,48.44904 -25.0664,66.24414 -16.71,17.6866 -36.5113,26.5293 -59.4063,26.5293 -10.1996,0 -19.6953,-1.79037 -28.4843,-5.37109 -8.7891,-3.68923 -17.5226,-9.65779 -26.2032,-17.9043 v 83.49609 h -44.1093 V 194.54102 h 44.1093 v 19.53125 c 8.0295,-8.02949 16.7095,-14.05165 26.0411,-18.0664 9.3315,-4.01475 19.3136,-6.02149 29.9472,-6.02149 z m 203.2871,0 c 27.8863,0 50.5656,8.95186 68.0352,26.85547 17.4696,17.79511 26.2031,41.3399 26.2031,70.63672 l -0.1621,8.46485 h -142.7402 c 2.0616,12.58678 7.5399,22.62241 16.4375,30.10937 9.006,7.37846 20.4549,11.06836 34.3437,11.06836 16.6016,0 30.869,-5.8058 42.8047,-17.41602 l 37.4356,17.57813 c -9.3316,13.23782 -20.5085,23.05904 -33.5293,29.46094 -13.0208,6.29339 -28.4831,9.43945 -46.3868,9.43945 -27.7777,0 -50.4015,-8.73549 -67.8711,-26.20508 -17.4695,-17.57809 -26.2031,-39.55083 -26.2031,-65.91797 0,-27.01817 8.68,-49.42364 26.041,-67.21875 17.4696,-17.90361 39.3332,-26.85547 65.5918,-26.85547 z m -1317.05465,4.55664 h 44.92187 v 85.28711 c 0,16.60153 1.13933,28.15757 3.41797,34.66797 2.27864,6.4019 5.91299,11.39194 10.9043,14.97266 5.09982,3.58072 11.33834,5.37109 18.7168,5.37109 7.37845,0 13.61893,-1.73481 18.71875,-5.20703 5.20832,-3.58072 9.05903,-8.78907 11.55468,-15.625 1.84462,-5.09981 2.76758,-16.00481 2.76758,-32.71484 v -86.75196 h 44.5957 v 75.03321 c 0,30.92442 -2.44141,52.08335 -7.32421,63.47656 -5.96787,13.88886 -14.75697,24.57554 -26.36719,32.0625 -11.61022,7.37846 -26.36592,11.06836 -44.26953,11.06836 -19.42271,0 -35.15693,-4.34095 -47.20117,-13.02148 -11.93575,-8.68054 -20.34572,-20.77846 -25.22852,-36.29493 -3.47222,-10.74216 -5.20703,-30.27349 -5.20703,-58.59375 z"
       style="display:inline;stroke:#ffffff;stroke-width:5"
       id="path7" />
  </g>
</svg>
